<?xml version="1.0" encoding="UTF-8"?>
<!DOCTYPE svg PUBLIC "-//W3C//DTD SVG 1.1//EN" "http://www.w3.org/Graphics/SVG/1.1/DTD/svg11.dtd">
<!-- Creator: CorelDRAW X6 -->
<svg xmlns="http://www.w3.org/2000/svg" xml:space="preserve" width="9.89095in" height="3.03913in" version="1.1" style="shape-rendering:geometricPrecision; text-rendering:geometricPrecision; image-rendering:optimizeQuality; fill-rule:evenodd; clip-rule:evenodd"
viewBox="0 0 86949 26716"
 xmlns:xlink="http://www.w3.org/1999/xlink">
 <defs>
  <style type="text/css">
   <![CDATA[
    .str0 {stroke:#B18C60;stroke-width:26.3722}
    .fil2 {fill:#986666}
    .fil3 {fill:#C2A65D}
    .fil4 {fill:#373435;fill-rule:nonzero}
    .fil1 {fill:url(#id0);fill-rule:nonzero}
    .fil0 {fill:url(#id1);fill-rule:nonzero}
   ]]>
  </style>
  <linearGradient id="id0" gradientUnits="userSpaceOnUse" x1="76862" y1="17449.3" x2="86952.6" y2="17449.3">
   <stop offset="0" style="stop-color:#6F286D"/>
   <stop offset="1" style="stop-color:#C2A65D"/>
  </linearGradient>
  <linearGradient id="id1" gradientUnits="userSpaceOnUse" xlink:href="#id0" x1="-0" y1="11647.5" x2="78854.6" y2="11647.5">
  </linearGradient>
 </defs>
 <g id="Layer_x0020_1">
  <metadata id="CorelCorpID_0Corel-Layer"/>
  <g id="_398620704">
   <path class="fil0" d="M308 12999c59,-118 176,-235 348,-348 171,-113 367,-206 592,-284 225,-78 465,-142 720,-191 255,-49 499,-73 734,-73 137,0 250,29 338,93 88,64 162,152 215,259 54,108 88,225 108,357 20,132 29,274 29,421 0,294 -15,666 -44,1121 -29,455 -59,940 -88,1449 -29,509 -49,1013 -64,1518 -15,504 -10,965 20,1376 29,411 83,739 162,989 78,250 201,377 367,377 196,0 397,-73 597,-215 201,-142 392,-318 578,-529 186,-211 367,-436 539,-681 171,-245 323,-475 455,-685 132,-211 240,-387 328,-529 88,-142 147,-211 176,-211 88,0 152,39 191,122 39,83 59,181 59,294 0,113 -10,230 -29,348 -20,117 -39,211 -59,279 -49,196 -137,441 -269,734 -132,294 -299,602 -494,925 -196,323 -421,646 -681,969 -259,323 -553,612 -876,867 -323,255 -671,460 -1048,622 -377,162 -778,245 -1200,245 -313,0 -583,-108 -808,-318 -225,-211 -411,-475 -563,-793 -152,-318 -274,-666 -362,-1048 -88,-382 -152,-744 -191,-1087 -20,-166 -34,-328 -44,-485 -10,-157 -15,-299 -15,-426 0,29 0,-64 -5,-279 -5,-215 -10,-499 -15,-852 -5,-353 -10,-749 -10,-1185 0,-436 10,-857 29,-1268 20,-411 54,-788 98,-1126 44,-338 103,-588 181,-754zm264 -4215c0,-313 54,-627 162,-935 108,-308 250,-583 421,-827 171,-245 367,-446 592,-597 220,-152 446,-225 671,-225 294,0 529,59 705,181 181,122 318,274 421,455 103,181 171,377 206,583 34,206 54,392 54,558 0,421 -64,788 -186,1106 -122,318 -274,583 -455,793 -181,211 -377,372 -583,480 -206,108 -392,162 -563,162 -264,0 -490,-54 -671,-157 -181,-103 -333,-235 -450,-401 -117,-166 -201,-353 -250,-558 -49,-206 -73,-411 -73,-617zm20593 4960c705,-313 1263,-715 1674,-1209 411,-490 715,-1004 906,-1542 191,-539 289,-1072 299,-1601 10,-529 -34,-999 -132,-1410 -186,-774 -455,-1498 -808,-2169 -353,-671 -803,-1253 -1351,-1748 -548,-494 -1204,-886 -1963,-1170 -759,-284 -1635,-426 -2629,-426 -1459,215 -2781,681 -3961,1400 -1175,720 -2179,1611 -3006,2668 -832,1058 -1474,2233 -1924,3525 -450,1293 -676,2619 -676,3980 0,499 44,1023 127,1572 83,548 211,1087 387,1621 176,534 401,1043 671,1528 269,485 587,911 960,1278 372,367 803,661 1288,876 485,215 1023,323 1621,323 754,0 1395,-191 1924,-568 529,-377 960,-867 1288,-1469 328,-602 563,-1278 710,-2027 147,-749 220,-1488 220,-2223 0,-852 -59,-1704 -181,-2551 -122,-847 -274,-1625 -450,-2335 -176,-710 -357,-1317 -548,-1826 -191,-509 -357,-847 -494,-1013 88,-313 255,-597 499,-852 245,-255 529,-475 852,-661 323,-186 666,-328 1028,-426 367,-98 710,-147 1033,-147 446,313 823,715 1136,1204 313,490 573,1028 774,1621 201,592 348,1229 441,1905 93,676 142,1356 142,2042 0,313 -25,715 -78,1209 -54,494 -147,1038 -269,1630 -122,592 -284,1214 -485,1865 -201,651 -450,1297 -754,1934 -304,636 -661,1239 -1067,1812 -406,573 -876,1077 -1410,1513 -534,436 -1141,783 -1816,1038 -676,255 -1425,382 -2252,382 -774,0 -1488,-122 -2154,-362 -661,-240 -1253,-573 -1782,-999 -529,-426 -999,-925 -1400,-1503 -401,-578 -739,-1200 -1013,-1865 -274,-666 -480,-1366 -617,-2095 -137,-729 -206,-1459 -206,-2193 0,-1195 142,-2379 426,-3550 284,-1170 690,-2282 1224,-3339 529,-1058 1175,-2037 1949,-2938 769,-901 1640,-1684 2610,-2345 969,-661 2032,-1175 3182,-1547 1155,-372 2384,-558 3701,-558 676,0 1400,73 2179,220 774,147 1542,372 2316,676 769,304 1508,681 2213,1131 705,450 1327,979 1865,1586 539,607 969,1293 1293,2056 323,764 485,1606 485,2526 0,548 -44,1048 -137,1498 -93,450 -225,862 -397,1234 -171,372 -377,710 -612,1018 -235,308 -490,597 -764,862 -108,108 -230,225 -372,353 -142,127 -279,250 -406,367 -157,137 -308,279 -455,426 0,382 54,793 162,1239 108,446 250,896 426,1346 176,450 382,881 617,1297 235,416 485,788 749,1111 264,323 534,578 803,769 269,191 524,289 769,289 176,0 402,-73 671,-220 269,-147 529,-401 783,-764 176,-245 318,-441 426,-587 108,-147 196,-259 259,-333 64,-73 113,-122 152,-147 39,-24 83,-34 132,-34 157,0 269,24 333,78 64,54 93,191 93,406 0,49 -34,196 -103,441 -69,245 -181,534 -338,867 -157,333 -362,690 -622,1067 -259,382 -583,729 -969,1048 -387,323 -842,587 -1366,798 -524,211 -1131,318 -1816,318 -166,0 -426,-64 -783,-186 -357,-122 -754,-323 -1185,-607 -431,-284 -876,-661 -1341,-1126 -465,-465 -896,-1038 -1288,-1718 -392,-681 -715,-1479 -974,-2394 -259,-920 -406,-1973 -436,-3168zm13028 3692c0,632 83,1160 250,1586 166,426 377,769 627,1023 255,259 524,441 813,553 294,113 563,171 823,171 323,0 632,-54 930,-162 294,-108 568,-250 818,-426 250,-176 485,-377 695,-602 211,-225 401,-450 568,-676 186,-274 338,-519 450,-729 113,-211 206,-382 279,-519 73,-137 142,-245 206,-318 64,-73 137,-108 225,-108 88,0 152,39 186,122 34,83 49,181 44,294 -5,113 -20,230 -44,348 -24,117 -49,211 -69,279 -49,176 -122,377 -220,602 -147,353 -362,749 -646,1190 -284,441 -636,852 -1058,1239 -426,387 -916,715 -1469,979 -553,264 -1185,397 -1895,397 -529,0 -1072,-108 -1625,-323 -558,-215 -1062,-529 -1513,-935 -450,-406 -823,-901 -1111,-1474 -289,-573 -436,-1214 -436,-1924 0,-617 93,-1234 274,-1846 181,-617 436,-1180 769,-1694 338,-519 739,-964 1214,-1341 475,-377 1009,-641 1596,-788 333,-88 690,-132 1062,-132 529,0 1013,78 1454,235 441,157 823,387 1141,690 318,308 568,690 744,1151 176,460 264,989 264,1591 0,304 -34,602 -103,896 -69,294 -181,553 -343,783 -162,225 -377,406 -641,548 -264,142 -592,215 -984,215 -353,0 -705,-39 -1058,-113 -353,-73 -671,-162 -960,-269 -289,-108 -524,-225 -700,-348 -176,-122 -264,-235 -264,-333 0,-39 15,-93 39,-166 24,-73 59,-147 103,-215 44,-69 93,-122 147,-166 54,-49 108,-69 166,-69 49,10 122,15 220,20 98,5 215,20 352,39 137,20 279,39 421,54 142,15 289,24 446,34 255,20 460,-10 612,-93 152,-88 225,-269 225,-553 0,-157 -5,-387 -20,-685 -15,-299 -64,-602 -137,-906 -73,-308 -186,-573 -348,-798 -157,-225 -377,-338 -661,-338 -304,0 -573,122 -803,367 -235,245 -426,563 -587,955 -157,387 -274,818 -353,1297 -78,475 -117,940 -117,1390zm6947 -4304c-20,-157 -24,-299 -15,-421 10,-122 59,-235 147,-338 88,-103 230,-201 426,-294 196,-93 480,-181 852,-269 387,-98 710,-152 960,-162 250,-10 455,25 622,108 166,83 304,215 411,392 103,176 201,401 289,676 49,127 88,255 113,387 24,132 59,294 108,485 49,191 127,421 230,690 103,269 259,612 475,1023 157,294 313,588 470,881 152,294 299,578 431,857 132,279 240,553 323,823 83,269 122,534 122,788 0,313 -34,602 -108,871 -73,269 -181,524 -318,759 362,-284 676,-583 940,-896 264,-313 485,-612 661,-891 176,-279 318,-524 426,-734 108,-211 186,-353 235,-431 88,-147 191,-220 308,-220 98,0 157,39 176,117 29,117 44,269 39,455 -5,186 -29,387 -73,602 -44,215 -113,436 -201,666 -88,230 -196,450 -323,656 -235,372 -543,729 -930,1077 -387,348 -852,661 -1395,940 -543,274 -1170,499 -1885,676 -710,171 -1513,264 -2399,274 -891,10 -1586,-196 -2086,-617 -499,-421 -774,-979 -823,-1674 -10,-117 -15,-274 -15,-465 0,-191 15,-372 44,-548 29,-176 78,-328 142,-450 64,-122 157,-171 284,-152 152,-20 357,-20 632,0 269,20 539,64 803,132 264,69 494,157 695,264 196,108 294,240 294,397 0,157 -15,313 -49,470 -34,157 -69,304 -103,446 -34,142 -69,274 -103,397 -34,122 -54,230 -54,318 0,98 25,171 73,225 49,54 147,83 294,83 367,0 676,-113 920,-333 250,-220 372,-553 372,-1004 0,-264 -59,-612 -176,-1043 -113,-431 -299,-960 -548,-1586 -137,-343 -274,-666 -416,-969 -142,-304 -250,-553 -328,-749 -20,127 -49,289 -93,490 -44,201 -108,455 -191,764 -83,308 -191,685 -323,1126 -132,441 -304,960 -509,1557 -59,186 -137,318 -240,401 -103,83 -211,127 -318,127 -108,0 -211,-39 -308,-113 -98,-73 -176,-176 -235,-313 -59,-137 -88,-299 -88,-485 0,-186 44,-392 132,-617 245,-529 446,-1028 602,-1493 157,-465 284,-896 377,-1293 93,-397 157,-754 196,-1077 39,-323 64,-612 73,-867 0,-78 0,-166 0,-264 0,-98 -10,-259 -29,-485l-15 -147zm10120 4304c0,632 83,1160 250,1586 166,426 377,769 627,1023 255,259 524,441 813,553 294,113 563,171 823,171 323,0 632,-54 930,-162 294,-108 568,-250 818,-426 250,-176 485,-377 695,-602 211,-225 401,-450 568,-676 186,-274 338,-519 450,-729 113,-211 206,-382 279,-519 73,-137 142,-245 206,-318 64,-73 137,-108 225,-108 88,0 152,39 186,122 34,83 49,181 44,294 -5,113 -20,230 -44,348 -24,117 -49,211 -69,279 -49,176 -122,377 -220,602 -147,353 -362,749 -646,1190 -284,441 -636,852 -1058,1239 -426,387 -916,715 -1469,979 -553,264 -1185,397 -1895,397 -529,0 -1072,-108 -1625,-323 -558,-215 -1062,-529 -1513,-935 -450,-406 -823,-901 -1111,-1474 -289,-573 -436,-1214 -436,-1924 0,-617 93,-1234 274,-1846 181,-617 436,-1180 769,-1694 338,-519 739,-964 1214,-1341 475,-377 1009,-641 1596,-788 333,-88 690,-132 1062,-132 529,0 1013,78 1454,235 441,157 823,387 1141,690 318,308 568,690 744,1151 176,460 264,989 264,1591 0,304 -34,602 -103,896 -69,294 -181,553 -343,783 -162,225 -377,406 -641,548 -264,142 -592,215 -984,215 -353,0 -705,-39 -1058,-113 -353,-73 -671,-162 -960,-269 -289,-108 -524,-225 -700,-348 -176,-122 -264,-235 -264,-333 0,-39 15,-93 39,-166 24,-73 59,-147 103,-215 44,-69 93,-122 147,-166 54,-49 108,-69 166,-69 49,10 122,15 220,20 98,5 215,20 352,39 137,20 279,39 421,54 142,15 289,24 446,34 255,20 460,-10 612,-93 152,-88 225,-269 225,-553 0,-157 -5,-387 -20,-685 -15,-299 -64,-602 -137,-906 -73,-308 -186,-573 -348,-798 -157,-225 -377,-338 -661,-338 -304,0 -573,122 -803,367 -235,245 -426,563 -587,955 -157,387 -274,818 -353,1297 -78,475 -117,940 -117,1390zm12588 279c-304,0 -588,-44 -857,-132 -269,-88 -509,-215 -715,-382 -206,-166 -367,-372 -485,-617 -117,-245 -176,-524 -176,-837 0,-137 15,-255 39,-352 24,-98 54,-186 93,-259 39,-73 83,-137 132,-196 49,-59 93,-127 132,-206 39,-78 73,-162 103,-250 29,-88 44,-201 44,-338 0,-215 -49,-514 -147,-896 -206,39 -397,157 -568,353 -171,196 -328,441 -465,734 -137,294 -259,617 -362,974 -108,357 -196,720 -274,1087 -83,367 -142,725 -186,1072 -44,348 -78,651 -98,906 -20,490 -29,969 -34,1444 -5,475 -15,935 -24,1376 -20,362 -88,636 -211,827 -122,191 -279,333 -465,421 -186,88 -392,137 -617,152 -225,15 -446,24 -661,24 -264,0 -470,-98 -617,-289 -147,-191 -220,-416 -220,-681 -20,-578 -34,-1077 -49,-1493 -15,-416 -29,-783 -44,-1106 -15,-323 -29,-617 -39,-881 -10,-264 -15,-529 -15,-793 -20,-842 -29,-1606 -34,-2286 -5,-681 25,-1239 93,-1679 69,-480 211,-852 421,-1116 211,-264 436,-465 676,-597 240,-132 465,-211 676,-240 211,-29 357,-49 446,-59 166,-20 338,24 509,132 171,108 294,250 372,426 78,186 118,397 118,632 -20,176 -34,352 -44,529 -10,176 -20,352 -29,529 142,-362 318,-715 529,-1058 211,-343 455,-646 725,-911 269,-264 573,-475 901,-632 328,-157 671,-235 1033,-235 147,0 328,15 539,44 211,29 421,88 636,176 157,69 313,157 465,264 152,108 284,240 401,401 117,162 211,357 279,588 69,230 103,499 103,803 -29,294 -103,607 -225,945 -122,338 -284,666 -480,984 -196,318 -426,607 -690,867 -264,259 -548,460 -852,597 20,0 34,5 39,20 5,15 20,34 44,54 24,20 64,34 122,49 59,15 152,24 279,24 441,0 818,-78 1131,-230 313,-152 588,-338 818,-558 230,-220 436,-450 617,-695 181,-245 367,-465 563,-661 157,-157 323,-284 494,-382 171,-98 367,-147 592,-147 215,0 323,215 323,646 0,137 -39,284 -122,441 -83,157 -196,318 -333,485 -215,255 -485,509 -813,769 -328,259 -690,494 -1082,705 -392,211 -798,382 -1219,514 -421,132 -832,201 -1234,201zm11383 -3834c0,215 0,387 -5,519 -5,132 -10,250 -20,353 -10,103 -20,206 -34,308 -10,103 -20,245 -29,421 98,59 220,98 367,117 225,39 455,20 685,-59 230,-78 431,-166 607,-264 333,-166 602,-323 803,-470 201,-147 362,-269 485,-362 122,-93 220,-162 299,-206 78,-44 162,-44 250,-5 78,29 137,83 171,166 34,83 44,176 34,279 -10,103 -34,211 -78,318 -44,108 -103,206 -171,294 -108,137 -215,259 -323,367 -88,98 -181,196 -279,294 -98,98 -176,171 -235,220 -78,59 -147,113 -206,166 -59,54 -122,108 -191,157 -157,127 -333,255 -534,387 -201,132 -490,284 -862,450 -450,206 -935,338 -1454,397 -206,450 -470,930 -783,1444 -313,514 -666,999 -1058,1454 -397,455 -818,857 -1278,1204 -455,348 -920,583 -1390,700 -206,59 -421,88 -636,88 -416,0 -774,-147 -1072,-436 -304,-289 -558,-666 -774,-1131 -211,-465 -382,-984 -519,-1562 -132,-578 -235,-1155 -308,-1728 -73,-573 -132,-1111 -171,-1621 -39,-509 -64,-925 -73,-1248 -34,-255 -64,-490 -83,-705 -24,-215 -34,-421 -34,-617 0,-176 64,-377 186,-602 122,-225 304,-441 543,-641 240,-201 543,-367 911,-499 367,-132 798,-196 1297,-196 235,0 426,59 573,176 147,117 215,313 206,587 -10,176 -39,377 -93,607 -54,230 -108,509 -157,832 20,372 44,783 73,1234 29,450 64,906 103,1371 39,465 88,916 142,1346 54,431 122,813 201,1151 78,338 171,612 279,818 108,206 240,308 387,308 225,0 441,-69 641,-206 201,-137 392,-318 568,-543 176,-225 338,-485 485,-778 147,-294 279,-597 397,-911 -274,-78 -490,-191 -651,-338 -162,-147 -289,-318 -377,-509 -88,-191 -142,-406 -166,-646 -25,-240 -34,-490 -25,-754 10,-392 69,-744 176,-1058 98,-304 225,-573 382,-803 157,-230 328,-421 509,-573 181,-152 367,-274 558,-367 191,-93 362,-162 519,-211 39,-10 127,-29 259,-59 132,-29 269,-10 411,59 142,69 269,211 382,431 113,220 171,583 181,1082z"/>
   <path class="fil1" d="M80035 17435c0,632 83,1160 250,1586 166,426 377,769 627,1023 255,259 524,441 813,553 294,113 563,171 823,171 323,0 632,-54 930,-162 294,-108 568,-250 818,-426 250,-176 485,-377 695,-602 211,-225 401,-450 568,-676 186,-274 338,-519 450,-729 113,-211 206,-382 279,-519 73,-137 142,-245 206,-318 64,-73 137,-108 225,-108 88,0 152,39 186,122 34,83 49,181 44,294 -5,113 -20,230 -44,348 -24,117 -49,211 -69,279 -49,176 -122,377 -220,602 -147,353 -362,749 -646,1190 -284,441 -636,852 -1058,1239 -426,387 -916,715 -1469,979 -553,264 -1185,397 -1895,397 -529,0 -1072,-108 -1625,-323 -558,-215 -1062,-529 -1513,-935 -450,-406 -823,-901 -1111,-1474 -289,-573 -436,-1214 -436,-1924 0,-617 93,-1234 274,-1846 181,-617 436,-1180 769,-1694 338,-519 739,-964 1214,-1341 475,-377 1009,-641 1596,-788 333,-88 690,-132 1062,-132 529,0 1013,78 1454,235 441,157 823,387 1141,690 318,308 568,690 744,1151 176,460 264,989 264,1591 0,304 -34,602 -103,896 -69,294 -181,553 -343,783 -162,225 -377,406 -641,548 -264,142 -592,215 -984,215 -353,0 -705,-39 -1058,-113 -353,-73 -671,-162 -960,-269 -289,-108 -524,-225 -700,-348 -176,-122 -264,-235 -264,-333 0,-39 15,-93 39,-166 24,-73 59,-147 103,-215 44,-69 93,-122 147,-166 54,-49 108,-69 166,-69 49,10 122,15 220,20 98,5 215,20 352,39 137,20 279,39 421,54 142,15 289,24 446,34 255,20 460,-10 612,-93 152,-88 225,-269 225,-553 0,-157 -5,-387 -20,-685 -15,-299 -64,-602 -137,-906 -73,-308 -186,-573 -348,-798 -157,-225 -377,-338 -661,-338 -304,0 -573,122 -803,367 -235,245 -426,563 -587,955 -157,387 -274,818 -353,1297 -78,475 -117,940 -117,1390z"/>
  </g>
  <circle class="fil2" cx="38101" cy="6859" r="2638"/>
  <circle class="fil3" cx="46310" cy="3927" r="1466"/>
  <circle class="fil3" cx="50317" cy="7836" r="1466"/>
  <circle class="fil3 str0" cx="52467" cy="2852" r="586"/>
  <path class="fil4" d="M58469 26587l0 -3305 1844 0 0 458 -1308 0 0 823 1308 0 0 471 -1308 0 0 1553 -536 0zm2407 0l0 -3499 490 0 0 3499 -490 0zm1147 -3064c0,-82 31,-154 92,-215 61,-60 133,-90 218,-90 87,0 160,29 218,87 58,58 87,131 87,218 0,88 -29,161 -88,220 -59,59 -132,89 -217,89 -85,0 -157,-31 -218,-92 -61,-61 -92,-133 -92,-218zm65 3064l0 -2140 490 0 0 2140 -490 0zm1189 0l0 -2140 461 0 0 351c98,-148 213,-256 345,-324 133,-68 294,-102 484,-102 159,0 295,25 407,75 112,51 200,126 263,225 38,59 65,127 82,206 16,78 25,215 25,411l0 1297 -495 0 0 -1098c0,-281 -34,-468 -102,-561 -69,-92 -190,-139 -365,-139 -114,0 -216,21 -306,63 -89,42 -160,102 -211,178 -36,52 -62,117 -75,198 -15,80 -22,208 -22,384l0 974 -490 0zm4399 -1063c0,-199 -64,-367 -192,-505 -128,-138 -284,-206 -469,-206 -183,0 -340,69 -468,206 -129,138 -193,307 -193,505 0,199 64,367 193,505 129,138 285,206 468,206 183,0 340,-69 468,-206 129,-138 193,-307 193,-505zm-1840 -5c0,-156 30,-304 89,-443 59,-139 145,-263 256,-371 110,-107 236,-189 380,-247 143,-57 293,-85 449,-85 161,0 313,28 455,85 142,58 270,142 383,253 112,110 198,234 257,373 59,138 88,283 88,435 0,158 -29,307 -87,444 -58,139 -143,261 -254,368 -117,112 -247,198 -391,256 -143,58 -294,87 -451,87 -155,0 -304,-29 -447,-87 -143,-58 -270,-142 -382,-251 -112,-112 -198,-236 -257,-375 -59,-138 -88,-286 -88,-442zm2833 -1997c0,-82 31,-154 92,-215 61,-60 133,-90 218,-90 87,0 160,29 218,87 58,58 87,131 87,218 0,88 -29,161 -88,220 -59,59 -132,89 -217,89 -85,0 -157,-31 -218,-92 -61,-61 -92,-133 -92,-218zm65 3064l0 -2140 490 0 0 2140 -490 0zm2728 -1077c0,-221 -52,-394 -155,-517 -103,-124 -247,-186 -432,-186 -186,0 -331,64 -437,191 -106,127 -159,304 -159,530 0,227 51,403 153,526 102,124 247,186 434,186 177,0 321,-67 431,-200 109,-133 165,-310 165,-530zm-14 -2422l490 0 0 3499 -490 0 0 -277c-87,122 -190,214 -306,274 -117,60 -250,90 -401,90 -302,0 -541,-103 -714,-310 -174,-206 -261,-490 -261,-850 0,-341 89,-617 267,-827 178,-210 410,-315 696,-315 175,0 324,36 448,109 124,72 215,177 272,314l0 -1708zm3669 652l0 2847 -536 0 0 -2847 -878 0 0 -458 2288 0 0 458 -874 0zm2839 1849l-1710 0c12,200 72,357 179,469 106,112 249,169 427,169 158,0 290,-33 394,-99 106,-66 197,-173 276,-321l411 230c-120,216 -269,375 -447,481 -177,106 -386,158 -625,158 -344,0 -616,-105 -820,-314 -203,-210 -304,-488 -304,-837 0,-336 105,-611 315,-827 210,-216 479,-324 809,-324 344,0 613,99 806,296 193,196 289,473 289,827l0 92zm-508 -328c-19,-153 -78,-270 -176,-350 -98,-81 -232,-121 -401,-121 -161,0 -290,39 -388,117 -97,79 -166,196 -205,354l1170 0zm1166 1327l-541 0 809 -1151 -693 -989 540 0 300 442c32,45 59,89 83,131 24,42 46,85 65,129 18,-36 39,-74 62,-114 23,-39 52,-89 89,-150l298 -438 535 0 -693 993 804 1147 -535 0 -398 -562 -18 -27c-77,-116 -127,-205 -149,-267 -30,58 -59,110 -87,159 -28,49 -56,95 -85,136l-387 560zm2699 129l-1122 -2269 535 0 468 1077c15,33 33,82 54,149 21,66 43,146 65,237 15,-65 33,-129 53,-193 20,-64 45,-128 73,-193l465 -1077 532 0 -1124 2269zm3112 -1192c0,-199 -64,-367 -192,-505 -128,-138 -284,-206 -469,-206 -183,0 -340,69 -468,206 -129,138 -193,307 -193,505 0,199 64,367 193,505 129,138 285,206 468,206 183,0 340,-69 468,-206 129,-138 193,-307 193,-505zm-1840 -5c0,-156 30,-304 89,-443 59,-139 145,-263 256,-371 110,-107 236,-189 380,-247 143,-57 293,-85 449,-85 161,0 313,28 455,85 142,58 270,142 383,253 112,110 198,234 257,373 59,138 88,283 88,435 0,158 -29,307 -87,444 -58,139 -143,261 -254,368 -117,112 -247,198 -391,256 -143,58 -294,87 -451,87 -155,0 -304,-29 -447,-87 -143,-58 -270,-142 -382,-251 -112,-112 -198,-236 -257,-375 -59,-138 -88,-286 -88,-442z"/>
 </g>
</svg>
